<svg width="1991" height="61" viewBox="0 0 1991 61" fill="none" xmlns="http://www.w3.org/2000/svg">
<rect width="1991" height="61" fill="#7D7483"/>
<mask id="mask0_1219:227" style="mask-type:alpha" maskUnits="userSpaceOnUse" x="-1" y="0" width="1993" height="63">
<rect x="-0.904053" y="0.101074" width="1992" height="62" fill="#C4C4C4"/>
</mask>
<g mask="url(#mask0_1219:227)">
<path d="M1945.1 24.1938C1961.21 24.1938 1977.22 18.4549 1993.1 7.16421V64.1011H-2.90405V4.06296C12.9281 15.4135 28.9036 21.8853 45.0027 22.6364C61.8112 23.4206 78.5234 17.9579 95.0951 5.71106C111.624 17.9624 128.301 24.1938 145.096 24.1938C161.891 24.1938 178.567 17.9626 195.096 5.71172C211.624 17.9626 228.301 24.1938 245.096 24.1938C261.891 24.1938 278.567 17.9626 295.096 5.71171C311.624 17.9626 328.301 24.1938 345.096 24.1938C361.891 24.1938 378.567 17.9626 395.096 5.71171C411.624 17.9626 428.301 24.1938 445.096 24.1938C461.891 24.1938 478.567 17.9626 495.096 5.71171C511.624 17.9626 528.301 24.1938 545.096 24.1938C561.891 24.1938 578.567 17.9626 595.096 5.71173C611.624 17.9626 628.301 24.1938 645.096 24.1938C661.891 24.1938 678.567 17.9626 695.096 5.71173C711.624 17.9626 728.301 24.1938 745.096 24.1938C761.891 24.1938 778.567 17.9626 795.096 5.71173C811.624 17.9626 828.301 24.1938 845.096 24.1938C861.891 24.1938 878.567 17.9626 895.096 5.71173C911.624 17.9626 928.301 24.1938 945.096 24.1938C961.891 24.1938 978.567 17.9626 995.096 5.71173C1011.62 17.9626 1028.3 24.1938 1045.1 24.1938C1061.89 24.1938 1078.57 17.9626 1095.1 5.71173C1111.62 17.9626 1128.3 24.1938 1145.1 24.1938C1161.89 24.1938 1178.57 17.9626 1195.1 5.71173C1211.62 17.9626 1228.3 24.1938 1245.1 24.1938C1261.89 24.1938 1278.57 17.9626 1295.1 5.71173C1311.62 17.9626 1328.3 24.1938 1345.1 24.1938C1361.89 24.1938 1378.57 17.9626 1395.1 5.71173C1411.62 17.9626 1428.3 24.1938 1445.1 24.1938C1461.89 24.1938 1478.57 17.9626 1495.1 5.71173C1511.62 17.9626 1528.3 24.1938 1545.1 24.1938C1561.89 24.1938 1578.57 17.9626 1595.1 5.71173C1611.62 17.9626 1628.3 24.1938 1645.1 24.1938C1661.89 24.1938 1678.57 17.9626 1695.1 5.71173C1711.62 17.9626 1728.3 24.1938 1745.1 24.1938C1761.89 24.1938 1778.57 17.9626 1795.1 5.71173C1811.62 17.9626 1828.3 24.1938 1845.1 24.1938C1861.89 24.1938 1878.57 17.9626 1895.1 5.71173C1911.62 17.9626 1928.3 24.1938 1945.1 24.1938Z" fill="#331B3F" stroke="#ACC7B4" stroke-width="4"/>
</g>
</svg>
