<svg width="2004" height="25" viewBox="0 0 2004 25" fill="none" xmlns="http://www.w3.org/2000/svg">
<path d="M1.90405 3C35.2374 29.6667 68.5707 29.6667 101.904 3C135.237 29.6667 168.571 29.6667 201.904 3C235.237 29.6667 268.571 29.6667 301.904 3C335.237 29.6667 368.571 29.6667 401.904 3C435.237 29.6667 468.571 29.6667 501.904 3C535.237 29.6667 568.571 29.6667 601.904 3C635.237 29.6667 668.571 29.6667 701.904 3C735.237 29.6667 768.571 29.6667 801.904 3C835.237 29.6667 868.571 29.6667 901.904 3C935.237 29.6667 968.571 29.6667 1001.9 3C1035.24 29.6667 1068.57 29.6667 1101.9 3C1135.24 29.6667 1168.57 29.6667 1201.9 3C1235.24 29.6667 1268.57 29.6667 1301.9 3C1335.24 29.6667 1368.57 29.6667 1401.9 3C1435.24 29.6667 1468.57 29.6667 1501.9 3C1535.24 29.6667 1568.57 29.6667 1601.9 3C1635.24 29.6667 1668.57 29.6667 1701.9 3C1735.24 29.6667 1768.57 29.6667 1801.9 3C1835.24 29.6667 1868.57 29.6667 1901.9 3C1935.24 29.6667 1968.57 29.6667 2001.9 3" stroke="#ACC7B4" stroke-width="4"/>
</svg>
