<?xml version="1.0" standalone="no"?>
<!DOCTYPE svg PUBLIC "-//W3C//DTD SVG 20010904//EN"
 "http://www.w3.org/TR/2001/REC-SVG-20010904/DTD/svg10.dtd">
<svg version="1.0" xmlns="http://www.w3.org/2000/svg"
 width="1024.000000pt" height="1024.000000pt" viewBox="0 0 1024.000000 1024.000000"
 preserveAspectRatio="xMidYMid meet">
<metadata>
Created by potrace 1.14, written by Peter Selinger 2001-2017
</metadata>
<g transform="translate(0.000000,1024.000000) scale(0.100000,-0.100000)"
fill="#000000" stroke="none">
<path d="M5218 10235 c-2 -1 -32 -6 -68 -10 -36 -4 -78 -9 -95 -10 -28 -4 -88
-16 -145 -29 -14 -4 -38 -9 -55 -12 -109 -19 -322 -96 -480 -174 -235 -115
-426 -250 -620 -439 -65 -63 -133 -138 -205 -228 -8 -10 -28 -39 -45 -63 -16
-25 -34 -48 -38 -51 -5 -4 -14 -16 -20 -27 -7 -12 -32 -54 -57 -94 -24 -40
-66 -118 -93 -173 -50 -102 -129 -295 -121 -295 3 0 0 -9 -6 -21 -10 -17 -33
-95 -45 -149 -34 -154 -38 -172 -50 -260 -23 -166 -23 -461 0 -620 13 -89 17
-109 30 -170 3 -14 7 -34 10 -45 20 -98 82 -288 129 -397 9 -21 17 -41 18 -45
4 -16 76 -151 122 -228 65 -110 70 -119 77 -125 3 -3 25 -33 48 -67 24 -35 47
-63 52 -63 4 0 11 -9 14 -20 8 -25 271 -293 340 -346 28 -22 52 -42 55 -45 36
-46 493 -309 535 -309 8 0 26 -6 42 -14 45 -23 88 -39 133 -51 3 -1 12 -4 20
-7 8 -4 26 -9 40 -12 14 -4 50 -13 80 -21 30 -9 69 -18 85 -21 17 -2 37 -7 46
-10 10 -2 30 -6 45 -8 27 -4 69 -10 146 -22 63 -10 403 -13 478 -4 162 18 180
21 315 51 100 22 104 24 125 32 8 3 47 15 85 27 39 12 80 26 93 31 12 5 32 13
45 18 12 5 52 23 90 40 37 17 69 31 71 31 3 0 154 85 204 115 34 20 137 90
142 95 3 4 30 25 60 47 30 22 69 52 85 67 17 14 33 26 38 26 4 0 7 7 7 15 0 8
4 15 10 15 15 0 166 157 246 257 72 89 143 191 197 283 58 98 187 375 187 401
0 4 5 20 12 36 6 15 12 31 13 36 2 4 3 8 5 10 1 1 3 9 5 17 2 8 9 33 15 55 6
22 13 49 15 60 3 11 7 31 11 45 14 61 26 118 30 150 3 19 7 46 9 60 25 136 25
465 -1 645 -2 17 -6 46 -8 66 -2 20 -6 41 -10 47 -3 5 -8 27 -11 48 -6 46 -69
273 -89 318 -7 17 -22 54 -31 81 -19 51 -133 286 -144 295 -3 3 -24 34 -45 70
-51 84 -128 188 -207 281 -62 72 -208 220 -240 243 -9 6 -39 31 -67 54 -107
92 -271 196 -433 278 -62 31 -124 60 -138 64 -14 5 -62 22 -106 39 -74 29
-226 74 -285 85 -14 2 -45 9 -70 15 -25 5 -62 11 -83 13 -20 1 -37 5 -37 8 0
3 -15 6 -32 7 -64 4 -476 11 -480 8z"/>
<path d="M6628 4835 c-2 -2 -55 -6 -118 -9 -63 -4 -133 -9 -155 -11 -22 -2
-74 -7 -115 -10 -41 -3 -91 -7 -110 -10 -19 -2 -69 -6 -110 -9 -41 -4 -97 -9
-125 -11 -127 -13 -143 -14 -340 -30 -33 -3 -85 -7 -115 -10 -30 -3 -79 -7
-108 -10 -29 -2 -79 -7 -110 -10 -31 -2 -86 -7 -122 -10 -36 -3 -87 -7 -115
-10 -27 -3 -79 -7 -115 -10 -36 -3 -85 -7 -110 -10 -25 -2 -75 -6 -112 -9 -38
-4 -98 -8 -135 -12 -38 -3 -88 -7 -113 -10 -69 -7 -160 -15 -215 -19 -46 -3
-80 -6 -230 -20 -27 -2 -84 -7 -125 -10 -41 -3 -88 -7 -105 -10 -16 -2 -70 -7
-120 -10 -49 -4 -103 -9 -120 -11 -16 -2 -70 -7 -119 -10 -49 -3 -97 -7 -105
-9 -10 -1 -18 -17 -23 -41 -3 -21 -9 -55 -13 -74 -3 -19 -8 -42 -10 -50 -5
-18 -14 -64 -20 -105 -3 -16 -7 -41 -10 -55 -15 -74 -54 -295 -62 -350 -8 -58
-9 -231 -1 -236 4 -3 8 -13 8 -23 0 -70 136 -232 232 -276 80 -37 113 -40 368
-39 213 2 308 4 600 19 52 3 149 7 215 10 l120 6 -30 -25 c-80 -68 -213 -166
-224 -166 -6 0 -11 -4 -11 -10 0 -5 -7 -10 -15 -10 -8 0 -15 -4 -15 -8 0 -5
-38 -33 -85 -63 -47 -29 -85 -57 -85 -61 0 -5 -4 -8 -10 -8 -9 0 -89 -51 -208
-131 -23 -16 -45 -29 -47 -29 -6 0 -185 -116 -202 -130 -7 -6 -13 -8 -13 -5 0
3 -15 -5 -32 -18 -18 -14 -51 -34 -73 -46 -22 -12 -60 -35 -85 -51 -25 -16
-52 -33 -60 -37 -8 -3 -17 -10 -20 -13 -3 -4 -17 -13 -32 -21 -15 -8 -87 -50
-159 -94 -72 -44 -143 -87 -158 -95 -113 -66 -227 -136 -229 -142 -2 -5 -10
-8 -17 -8 -8 0 -20 -6 -27 -14 -8 -7 -32 -23 -54 -35 -21 -11 -55 -31 -75 -43
-20 -13 -63 -38 -95 -57 -33 -19 -60 -38 -62 -43 -2 -4 -8 -8 -13 -8 -5 0 -65
-36 -135 -80 -69 -44 -130 -80 -135 -80 -5 0 -9 -4 -9 -8 0 -4 -24 -22 -53
-40 -30 -18 -62 -40 -73 -50 -10 -10 -36 -30 -57 -46 -132 -100 -63 -264 214
-509 30 -26 63 -56 74 -66 11 -9 58 -46 105 -81 47 -35 90 -68 95 -74 6 -6 22
-17 38 -23 15 -7 27 -17 27 -23 0 -5 6 -10 13 -10 7 0 23 -9 35 -20 12 -11 24
-20 26 -20 3 0 53 -31 110 -70 58 -38 108 -70 112 -70 4 0 15 -6 23 -14 9 -7
39 -26 66 -41 28 -16 97 -55 153 -87 57 -32 108 -58 113 -58 5 0 9 -4 9 -10 0
-5 4 -10 9 -10 5 0 73 -31 150 -69 78 -38 141 -67 141 -65 0 3 10 -2 22 -10
42 -27 203 -78 241 -77 78 2 208 59 331 145 32 23 68 48 80 56 33 23 180 143
253 207 219 191 522 499 824 835 l36 40 23 -58 c43 -107 118 -272 130 -284 3
-3 14 -23 25 -45 32 -65 127 -220 136 -223 5 -2 9 -9 9 -15 0 -7 9 -23 20 -37
11 -14 42 -54 69 -90 26 -36 62 -80 80 -99 17 -18 31 -36 31 -39 0 -13 246
-245 322 -304 95 -73 236 -167 308 -206 186 -102 245 -122 367 -128 175 -7
331 55 478 190 93 86 290 283 370 371 44 48 95 103 113 122 17 18 32 38 32 43
0 6 3 10 8 10 4 0 37 35 74 78 36 42 85 97 107 122 48 52 117 186 127 245 33
194 -26 369 -170 506 -21 20 -51 43 -65 50 -14 7 -33 18 -41 24 -8 6 -46 24
-85 40 -38 16 -103 43 -143 62 -41 18 -75 33 -77 33 -28 0 -663 324 -685 349
-3 3 -19 13 -35 22 -44 23 -79 43 -85 49 -3 3 -43 30 -90 60 -47 30 -87 57
-90 61 -3 3 -16 12 -29 19 -14 7 -30 17 -35 21 -6 5 -25 20 -42 34 -18 14 -35
25 -39 25 -3 0 -12 6 -19 13 -8 6 -48 37 -90 67 -70 51 -89 73 -68 82 7 2 21
20 74 93 4 5 24 31 43 58 19 26 35 51 35 56 0 5 4 11 8 13 9 3 154 210 187
266 11 18 23 32 27 32 4 0 8 4 8 9 0 5 17 36 38 68 67 101 108 168 111 178 1
6 9 18 18 27 14 16 37 54 64 108 7 14 21 37 31 51 9 14 15 29 11 33 -3 3 -2 6
4 6 10 0 46 96 49 130 1 8 7 35 14 60 7 25 14 56 15 70 4 29 10 63 25 140 6
30 13 69 15 85 3 17 7 41 11 55 3 14 7 69 9 123 3 103 -15 179 -56 239 -11 14
-19 30 -19 35 0 17 -117 119 -165 144 -28 15 -72 31 -100 37 -49 11 -132 21
-137 17z"/>
</g>
</svg>
